<?xml version="1.0" encoding="UTF-8"?>
<svg width="50px" height="49px" viewBox="0 0 50 49" version="1.1" xmlns="http://www.w3.org/2000/svg" xmlns:xlink="http://www.w3.org/1999/xlink">
    <!-- Generator: Sketch 45.1 (43504) - http://www.bohemiancoding.com/sketch -->
    <title>LabQualityResultsIcon</title>
    <desc>Created with Sketch.</desc>
    <defs></defs>
    <g id="Front-Page" stroke="none" stroke-width="1" fill="none" fill-rule="evenodd">
        <g id="Extra-large-≥1200px" transform="translate(-142.000000, -2057.000000)">
            <g id="BloodDiagnosticsMeet..." transform="translate(-112.000000, 1490.000000)">
                <g id="icons" transform="translate(239.000000, 562.000000)">
                    <g id="LABQUALITY" transform="translate(0.000000, 5.000000)">
                        <g id="LabQualityResultsIcon" transform="translate(15.000000, 0.000000)">
                            <g transform="translate(0.457338, 0.000000)">
                                <path d="M24.4494,4.514 C13.4394,4.514 4.5144,13.44 4.5144,24.45 C4.5144,35.459 13.4394,44.384 24.4494,44.384 C35.4594,44.384 44.3844,35.459 44.3844,24.45 C44.3844,13.44 35.4594,4.514 24.4494,4.514 M24.4494,6.014 C34.6144,6.014 42.8844,14.285 42.8844,24.45 C42.8844,34.615 34.6144,42.884 24.4494,42.884 C14.2844,42.884 6.0144,34.615 6.0144,24.45 C6.0144,14.285 14.2844,6.014 24.4494,6.014" id="Fill-1" fill="#FFFFFF"></path>
                                <path d="M24.4494,10.4944 C16.7424,10.4944 10.4954,16.7424 10.4954,24.4494 C10.4954,32.1564 16.7424,38.4034 24.4494,38.4034 C32.1554,38.4034 38.4034,32.1564 38.4034,24.4494 C38.4034,16.7424 32.1554,10.4944 24.4494,10.4944 M24.4494,11.9944 C31.3164,11.9944 36.9034,17.5814 36.9034,24.4494 C36.9034,31.3164 31.3164,36.9034 24.4494,36.9034 C17.5814,36.9034 11.9954,31.3164 11.9954,24.4494 C11.9954,17.5814 17.5814,11.9944 24.4494,11.9944" id="Fill-3" fill="#FFFFFF"></path>
                                <path d="M24.383,38.7273 L24.383,48.1483" id="Stroke-5" stroke="#FFFFFF" stroke-width="1.5" stroke-linecap="round" stroke-linejoin="round"></path>
                                <path d="M38.8635,24.5149 L48.1485,24.5149" id="Stroke-7" stroke="#FFFFFF" stroke-width="1.5" stroke-linecap="round" stroke-linejoin="round"></path>
                                <path d="M24.5149,10.7273 L24.5149,0.7493" id="Stroke-9" stroke="#FFFFFF" stroke-width="1.5" stroke-linecap="round" stroke-linejoin="round"></path>
                                <path d="M10.8635,24.3836 L0.7505,24.3836" id="Stroke-11" stroke="#FFFFFF" stroke-width="1.5" stroke-linecap="round" stroke-linejoin="round"></path>
                                <path d="M24.4494,16.4749 C20.0454,16.4749 16.4754,20.0449 16.4754,24.4499 C16.4754,28.8529 20.0454,32.4229 24.4494,32.4229 C28.8524,32.4229 32.4234,28.8529 32.4234,24.4499 C32.4234,20.0449 28.8524,16.4749 24.4494,16.4749 M24.4494,17.9749 C28.0184,17.9749 30.9234,20.8789 30.9234,24.4499 C30.9234,28.0189 28.0184,30.9229 24.4494,30.9229 C20.8794,30.9229 17.9754,28.0189 17.9754,24.4499 C17.9754,20.8789 20.8794,17.9749 24.4494,17.9749" id="Fill-13" fill="#FFFFFF"></path>
                                <path d="M26.4426,24.449 C26.4426,25.55 25.5496,26.443 24.4496,26.443 C23.3476,26.443 22.4556,25.55 22.4556,24.449 C22.4556,23.348 23.3476,22.456 24.4496,22.456 C25.5496,22.456 26.4426,23.348 26.4426,24.449 Z" id="Stroke-15" stroke="#FFFFFF" stroke-width="1.5" stroke-linecap="round" stroke-linejoin="round"></path>
                            </g>
                        </g>
                    </g>
                </g>
            </g>
        </g>
    </g>
</svg>