<?xml version="1.0" encoding="UTF-8"?>
<svg width="35px" height="39px" viewBox="0 0 35 39" version="1.1" xmlns="http://www.w3.org/2000/svg" xmlns:xlink="http://www.w3.org/1999/xlink">
    <!-- Generator: Sketch 45.2 (43514) - http://www.bohemiancoding.com/sketch -->
    <title>ProductTubs/BarinIcon</title>
    <desc>Created with Sketch.</desc>
    <defs></defs>
    <g id="Front-Page" stroke="none" stroke-width="1" fill="none" fill-rule="evenodd">
        <g id="Extra-large-≥1200px" transform="translate(-231.000000, -4070.000000)" fill="#00979B">
            <g id="Tab4_Lab" transform="translate(0.000000, 3562.000000)">
                <g id="TextAndIcons" transform="translate(124.000000, 163.000000)">
                    <g id="Icons" transform="translate(0.000000, 331.000000)">
                        <g id="MachineLearning" transform="translate(97.720497, 14.000000)">
                            <g id="BarinIcon" transform="translate(9.000000, 0.000000)">
                                <g transform="translate(0.202956, 0.034483)" id="Shape">
                                    <path d="M34.6160981,23.8577633 C35.3947782,22.5278165 34.8523553,20.4377196 34.637576,19.744109 C35.5994502,17.3971193 33.7409779,11.376141 32.92229,9.37406143 C32.2889018,7.82765083 31.0120181,6.41895163 30.0792023,5.39053804 C29.6635413,4.93234231 29.3043124,4.5356324 29.1674433,4.30442886 C28.5946986,3.33413201 27.8665549,2.86835583 26.8082406,2.79423593 C26.5774582,2.77823277 26.5740892,2.77233687 26.4212169,2.47669955 C26.3032988,2.24844395 26.1407404,1.9359612 25.8038318,1.61547687 C25.3961724,1.22761081 24.9657716,1.15012183 24.4726216,1.22634741 C24.3071152,1.25245782 24.182459,1.35900518 23.7503737,1.11053506 C22.7459649,0.531894496 22.1669032,0.278370754 20.8462213,0.278370754 C19.3111814,0.278370754 18.8037128,3.18841903 18.6929541,4.03321741 C18.385525,5.37158693 18.385525,9.70591643 18.3846827,13.1891305 C18.3846827,14.5102335 18.3846827,15.6401408 18.3653104,16.2916378 C18.3215123,17.811938 18.7557033,18.7784446 19.1157744,19.3124448 C18.2503404,20.2174656 18.0136621,22.4031603 18.0768324,23.1767868 C18.1193671,23.6968895 18.2878215,24.0114779 18.4095297,24.241418 C18.5581906,24.5189465 18.6323105,24.6579213 18.3956322,25.2892039 C17.8292046,26.8040293 18.1463198,31.5742343 18.3872095,32.3356478 C18.4954414,32.6733987 18.664738,32.8629098 18.7995014,33.0149398 C18.9953296,33.2347727 19.1978959,33.462186 19.2265331,34.6426297 C19.2859133,37.1003781 23.1809981,38.2045961 24.1782477,38.2045961 C25.1868679,38.2045961 26.8166634,37.4023324 26.9665877,37.326528 C30.4834926,35.8601332 31.7603763,32.8254287 32.522211,31.0120181 C32.736148,30.5049706 32.978301,29.9292779 33.1244351,29.8042006 C34.0083992,29.0550001 33.973866,27.8160186 33.9216452,27.3384506 C34.6990618,25.8560526 34.6628442,24.3896578 34.6160981,23.8577633 Z M31.9658906,9.76571771 C32.8713325,11.9792074 34.1153676,16.4883082 33.8508944,18.6634746 C33.7771956,18.5396607 33.7018123,18.4162679 33.6251656,18.2916117 C33.1791828,17.5706272 32.7197237,16.8247957 32.528528,15.5782338 C32.1511903,13.107009 30.6409974,12.5068905 30.5761425,12.4824647 C30.3803144,12.4070814 30.1575335,12.5056271 30.0808868,12.7035609 C30.0029767,12.9010736 30.1011013,13.1251179 30.2977718,13.2047125 C30.344939,13.2236636 31.458422,13.6970203 31.762482,15.6948884 C31.9772613,17.0972706 32.5024176,17.9479649 32.9652458,18.6980077 C33.2747806,19.1991593 33.5409384,19.6367194 33.6891782,20.1774577 C33.9313313,21.018887 34.2324434,22.6373118 33.6630678,23.4324162 C33.0330487,23.8670283 31.4441034,24.5113661 29.0592114,22.4136887 C27.525856,21.0643697 26.9661666,20.0814388 26.9606918,20.0717526 C26.855829,19.8847683 26.6178873,19.8178078 26.4342721,19.9226706 C26.2477089,20.0266911 26.1807483,20.2616849 26.2839266,20.448248 C26.3083525,20.4920461 26.9021539,21.546149 28.5471103,22.994435 C29.9861313,24.2612114 31.2124787,24.6478141 32.1743528,24.6478141 C32.748782,24.6478141 33.2267711,24.5096815 33.601582,24.3391215 C33.6028454,24.9383978 33.5059842,25.9638634 32.9479793,26.9661666 C31.650881,27.2828607 26.5201838,27.8593956 22.4292708,18.8272964 C22.4280074,18.8251907 22.4259017,18.8205582 22.4250594,18.8184525 C22.4225326,18.8129778 22.417479,18.8100298 22.4153733,18.8049762 C22.4031603,18.7818137 22.3858938,18.7628626 22.3690483,18.742227 C22.3568354,18.7274872 22.3484127,18.7093784 22.3345152,18.6967443 C22.3294616,18.6925329 22.3239868,18.6904273 22.3189332,18.6862159 C22.3138796,18.6820045 22.3117739,18.6765298 22.3067202,18.6723184 C22.2907171,18.6605266 22.2721871,18.6567364 22.2553417,18.6474714 C22.2389174,18.6386276 22.225441,18.6259935 22.2081745,18.6196765 C22.2018574,18.6175708 22.1951193,18.6175708 22.1883811,18.6154651 C22.1622707,18.6070424 22.1361603,18.6053578 22.1092076,18.602831 C22.0932044,18.6011465 22.0776224,18.5952506 22.0611981,18.5956717 C22.054881,18.5956717 22.0494063,18.5986197 22.0430892,18.5994619 C22.0148731,18.6015676 21.9883416,18.6099903 21.9613889,18.618413 C21.946228,18.6230455 21.9302249,18.5708247 21.9154851,18.577984 C21.9138006,18.5792474 21.9129583,18.5299745 21.912116,18.5299745 C21.9112737,18.5299745 21.9104315,18.5299745 21.9100103,18.5299745 C21.9053778,18.5299745 21.9024299,18.5876701 21.8982185,18.5901969 C21.8746349,18.6019887 21.8552627,18.6453657 21.834627,18.6622112 C21.8194661,18.6744241 21.8009362,18.6963232 21.7883021,18.7102206 C21.7840907,18.7148531 21.7819851,18.7274872 21.778616,18.7321197 C21.7739835,18.7371733 21.7685087,18.7426481 21.7642974,18.7481229 C21.3498997,19.3044432 20.8053712,19.3052855 20.4448789,19.2223218 L20.2195713,19.0336529 C20.1829325,19.0037523 19.341082,18.2726606 19.3983565,16.3215385 C19.4177288,15.6641455 19.4177288,14.5228675 19.4177288,13.1891305 C19.4181499,12.0929141 19.418571,10.7970792 19.4320474,9.52567031 C20.073016,9.2430882 21.5293036,8.78910383 22.4233749,9.99818467 C22.9072599,10.6513663 23.084558,11.2733838 22.9506369,11.847813 C22.8116621,12.4424568 22.3686272,12.8560121 22.0308763,13.0290989 C21.8413652,13.1268024 21.766403,13.3605328 21.8641065,13.550465 C21.9327517,13.6839651 22.0675151,13.7610329 22.2077533,13.7610329 C22.2675546,13.7610329 22.327777,13.7471354 22.3854726,13.7180771 C22.8626195,13.4725549 23.4294682,12.9389759 23.6602507,12.1682974 C23.9748391,12.1767201 24.8693315,12.3013763 25.4513412,13.4207552 C25.5187229,13.550465 25.6530652,13.6292174 25.794988,13.6292174 C25.8210984,13.6292174 25.8484722,13.6266906 25.8754249,13.6203735 C26.0455637,13.584577 26.1710622,13.4392852 26.1811695,13.2653561 C26.1841174,13.2131352 26.2771884,11.9876301 27.755375,11.8907689 C29.0263628,11.8082263 29.8741092,11.3807734 30.0838348,10.718748 C30.1693253,10.4475365 30.2089121,9.90806161 29.5102478,9.34584533 C29.1156436,9.02830895 29.1089054,8.79794768 29.098377,8.44882611 C29.0882698,8.10391591 29.0747934,7.68572807 28.6844006,7.2435355 C28.9657193,6.81271359 29.1009039,6.34104151 29.1560726,5.90979847 C29.2091358,5.96833634 29.2584086,6.02350513 29.3144197,6.08499095 C30.1950146,7.05655121 31.4019898,8.38734029 31.9658906,9.76571771 Z M20.8462213,1.3109957 C21.9386476,1.3109957 22.3235657,1.48029228 23.2353247,2.00544861 C23.7166829,2.28213482 24.219519,2.31119319 24.6318109,2.24675941 C24.7017195,2.23580988 24.7669955,2.22359694 24.8343772,2.22359694 C24.8781753,2.22359694 24.9447148,2.22359694 25.0916912,2.36383516 C25.3035225,2.56513806 25.4008049,2.75296462 25.5039831,2.95216185 C25.5646267,3.06881646 25.6349564,3.19936856 25.7297119,3.32402475 C25.8050952,3.70094128 25.8413129,4.22778214 25.6033712,4.64891793 C25.3885919,5.02962468 24.9649293,5.27262002 24.3450174,5.37200807 C24.1331861,5.4052778 23.9887366,5.60405389 24.0232697,5.81546405 C24.0531703,6.00623856 24.2178344,6.14142315 24.4052399,6.14142315 C24.4254544,6.14142315 24.4456689,6.14015974 24.4658834,6.13636952 C25.3334231,5.99823698 25.9436489,5.62468954 26.2805575,5.02541332 C26.5024961,4.62954568 26.5669298,4.19367014 26.5589283,3.79906591 C26.6162027,3.8083309 26.6713715,3.81970157 26.7353842,3.82433406 C27.4471036,3.87444922 27.8800312,4.15618906 28.2771623,4.83000632 C28.3100109,4.88559624 28.3554935,4.9475032 28.3984494,5.00856789 C28.4435109,5.47223839 28.4388784,6.3044027 27.9554145,6.93694865 C27.5296462,7.49453243 26.7985545,7.79395997 25.7819327,7.82512402 C25.5684169,7.83228332 25.4008049,7.92240638 25.4067008,8.13634336 C25.4147023,8.34564785 25.5861046,8.42271569 25.794988,8.42271569 C25.7991993,8.42271569 25.8029895,8.42271569 25.8067798,8.42271569 C26.8036082,8.42271569 27.5907109,8.21888597 28.1621922,7.74005459 C28.310432,7.94304204 28.3163279,8.17424558 28.3243295,8.42650592 C28.3361213,8.82153128 28.3512822,9.38458983 29.0242571,9.92617045 C29.1421752,10.020926 29.408333,10.2736075 29.3451626,10.473647 C29.2634623,10.7322243 28.7155646,11.0459705 27.7048387,11.1120888 C26.5846175,11.1849453 25.9672325,11.7694818 25.6606456,12.3527548 C24.9864072,11.5820764 24.1866704,11.4233082 23.7609021,11.3971977 C23.7457412,10.8880446 23.5764446,10.2538141 23.0453924,9.53619871 C22.0527754,8.19572351 20.5114184,8.30311313 19.4417335,8.68297761 C19.4514196,8.07148845 19.4657382,7.48063494 19.4846894,6.93105275 C19.6939938,6.379786 20.1677716,5.43433617 21.0024627,5.26672412 C21.2121883,5.22418941 21.3473729,5.02078083 21.3052593,4.81063407 C21.2635669,4.60090845 21.062264,4.46403932 20.8491693,4.50699517 C20.3155903,4.61438479 19.8969813,4.91423347 19.5722856,5.2747257 C19.6080821,4.82326814 19.6523014,4.45856455 19.7074702,4.21641148 C19.9079308,2.72348512 20.4621455,1.3109957 20.8462213,1.3109957 Z M26.5374503,36.3878163 C26.1386348,36.5878558 25.4938759,36.8620152 24.9341864,37.0279427 C25.6113727,36.1860923 26.0013445,35.0014373 26.1285275,34.5697732 C27.7035753,33.5510457 28.1887238,31.6272974 28.1950408,31.6003447 C28.2443137,31.3927248 28.1154461,31.1838415 27.907405,31.1337263 C27.6955737,31.0852957 27.4909018,31.2735434 27.4407866,31.4798999 C27.4340484,31.5102217 26.6957974,34.5331343 23.9756814,34.5331343 L23.9748391,34.5331343 C23.7609021,34.5331343 23.5873942,34.7403332 23.5873942,34.9542701 C23.5873942,35.1682071 23.7609021,35.3754059 23.9748391,35.3754059 L23.9756814,35.3754059 C24.4090301,35.3754059 24.799423,35.2195857 25.1535982,35.1147229 C24.8457479,35.9014045 24.33112,36.8468543 23.6943627,37.1290153 C23.6775172,37.1365958 23.6606718,37.1159601 23.6438264,37.1214349 C22.4755957,36.8729648 20.2915855,35.9721553 20.2595792,34.6299956 C20.2242038,33.1867632 19.9264608,32.7336211 19.5714433,32.3343844 C19.4686862,32.2194143 19.4130963,32.1537172 19.371825,32.0248496 C19.1823139,31.4276791 18.8879399,26.9236319 19.3629811,25.6526441 C19.7340017,24.6642384 19.5714433,24.225836 19.3212887,23.7558485 C19.2193738,23.5654951 19.1309353,23.3995676 19.105246,23.0921385 C19.0113327,21.9352785 19.5975537,20.0119514 19.9677321,19.9449908 L20.0877558,19.9264608 C20.2920067,19.98921 20.5274216,20.0351138 20.7805242,20.0351138 C21.1633366,20.0351138 21.5768919,19.9323567 21.9521239,19.6497746 C22.6276257,21.1730227 23.7836434,24.0935994 23.5932901,25.190237 C23.4698973,25.8939549 22.9030485,26.359731 22.3559931,26.8111886 C21.7790371,27.2849664 21.1818666,27.7760107 21.1317514,28.5416355 C21.0892167,29.1821831 21.4391805,29.8778994 22.2338638,30.7319628 C22.892099,31.439892 22.8074507,32.0126367 22.5345547,32.2889018 C22.4006335,32.4232441 22.203542,32.5078924 21.9782343,32.4994696 C21.5545717,32.3655485 21.2673571,32.165509 21.2618824,32.1617187 C21.2467215,32.1511903 21.2290338,32.1482424 21.2130306,32.1398197 C21.1890259,32.1276067 21.1667057,32.1149727 21.1414375,32.1082345 C21.1174328,32.1010752 21.0942703,32.0993906 21.0698444,32.0977061 C21.0445763,32.0951793 21.0209927,32.0930736 20.9957245,32.0956004 C20.9704564,32.0981272 20.9481362,32.1052865 20.9241315,32.1124459 C20.9005479,32.1200263 20.8782277,32.1263433 20.8559075,32.1381351 C20.8340084,32.1495058 20.8154784,32.165509 20.7956851,32.1819333 C20.7805242,32.1937251 20.7628365,32.2008844 20.7493601,32.2156241 C20.7430431,32.2223623 20.7413585,32.2312061 20.7358838,32.2383655 C20.7320935,32.2434191 20.7261976,32.2459459 20.7224074,32.2509995 C20.7135636,32.2636336 20.7110368,32.2787945 20.7034563,32.292692 C20.6887166,32.3192235 20.6748191,32.3453339 20.6668175,32.3739712 C20.6605005,32.3946068 20.6596582,32.4152425 20.6575525,32.4358781 C20.6546046,32.4636731 20.6516566,32.4910469 20.6550257,32.5188419 C20.6575525,32.540741 20.6638695,32.5609555 20.6701866,32.5815911 C20.677767,32.6077015 20.6849263,32.6333908 20.6979815,32.6578167 C20.7089311,32.6792946 20.7249342,32.6969823 20.7409374,32.7159334 C20.7527292,32.7310943 20.7603096,32.7492032 20.7750494,32.7626795 C20.7847355,32.7715234 20.7952639,32.7769981 20.80495,32.785842 C20.8066346,32.7871054 20.8074769,32.7892111 20.8091614,32.7904745 C20.8108459,32.7917379 20.8209532,32.7988972 20.8247434,32.8010029 C21.1498602,33.0819004 21.4943493,33.2242443 21.8249409,33.2621465 C22.0860451,33.3383721 22.3795767,33.3952255 22.7000611,33.3952255 C23.0138072,33.3952255 23.3473468,33.3425835 23.6884668,33.2086623 C25.0209404,32.6814003 25.9545984,31.0920339 26.462067,28.4818343 C26.5024961,28.2721086 26.3660481,28.0695423 26.155059,28.0278499 C25.9495448,27.9853152 25.7427671,28.1247111 25.7014958,28.3348579 C25.2542496,30.6300479 24.4620932,32.0648575 23.410096,32.4855722 C23.3810376,32.4969428 23.3519793,32.5045233 23.323342,32.5142094 C23.6509857,31.9271461 23.6067664,31.0680291 22.8011337,30.2034373 C22.1799584,29.535516 21.8784252,28.9943565 21.9045356,28.5930141 C21.9335939,28.1613499 22.3572565,27.8122284 22.8483009,27.4087803 C23.4745298,26.8933101 24.1849858,26.3096159 24.3563881,25.3233159 C24.4427209,24.8259545 24.3298566,24.1011798 24.1243423,23.3149193 C26.9640609,27.1371477 29.9558095,27.8471826 31.781012,27.8471826 C32.2413134,27.8471826 32.6211779,27.8021211 32.9126038,27.7503214 C32.9147095,28.1327127 32.8431164,28.6894542 32.4569349,29.017519 C32.4152425,29.0528944 32.3756557,29.0924811 32.3369112,29.1358581 C31.9052471,29.3497951 31.1611001,29.5654166 30.0800446,29.3535853 C29.8648442,29.3110506 29.6664892,29.4491832 29.6252179,29.6593299 C29.5835255,29.8698978 29.7212369,30.0724641 29.9309625,30.1137354 C30.2948238,30.1844862 30.6287845,30.214808 30.9345291,30.214808 C31.2503809,30.214808 31.5258037,30.1773269 31.7793275,30.1255272 C31.7132091,30.276715 31.6454063,30.43801 31.5721286,30.6119391 C30.8241915,32.3870264 29.6959687,35.0696613 26.5374503,36.3878163 Z" fill-rule="nonzero"></path>
                                    <path d="M28.1386086,15.7757465 C28.3154856,15.1768914 28.0804919,14.7515443 28.0657521,14.7262761 C27.9621527,14.54603 27.7351605,14.4837019 27.5494396,14.5835111 C27.3649822,14.6820569 27.2950736,14.9157872 27.3889869,15.1031926 C27.3978307,15.1208804 27.5995548,15.5458064 27.0209142,16.1471883 C26.75981,16.4179786 26.5791428,16.6403383 26.4330087,16.8210055 C26.1377925,17.1857091 26.0758855,17.2610924 25.7612971,17.2884662 C25.3869074,17.3183669 24.734568,16.887545 23.7625867,16.0094769 C23.6042396,15.8658696 23.3591386,15.8785036 23.2159524,16.0372718 C23.0723451,16.19604 23.084558,16.441141 23.2437474,16.5843272 C24.0578028,17.3204726 24.985565,18.0637772 25.7347655,18.0637772 C25.7659296,18.0637772 25.7962514,18.0620927 25.8278365,18.0595659 C26.4709109,18.0048182 26.7071681,17.7121288 27.0348117,17.3078385 C27.1699963,17.1414898 27.3363449,16.9355544 27.5772346,16.6849787 C27.6441952,16.6154913 27.7035753,16.546425 27.7579018,16.4786221 C28.2182033,16.5839061 29.3291595,17.01178 29.7073394,18.7156954 C29.7477684,18.8963627 29.9082212,19.0193343 30.0855193,19.0193343 C30.112472,19.0193343 30.1411092,19.0163864 30.1689042,19.0100693 C30.3777876,18.9637444 30.5100242,18.7569667 30.4636993,18.5480834 C30.0766755,16.8012121 28.9640347,16.0330605 28.1386086,15.7757465 Z" fill-rule="nonzero"></path>
                                    <path d="M16.70772,16.2912167 C16.6883477,15.6397196 16.6883477,14.5102335 16.6883477,13.1887094 C16.6883477,9.70549529 16.6883477,5.3711658 16.3889202,4.07996348 C16.2701599,3.18841903 15.7622702,0.278370754 14.2272302,0.278370754 C12.905285,0.278370754 12.3274867,0.531894496 11.323499,1.11011393 C10.8914137,1.35858404 10.7667575,1.25287896 10.5999877,1.22634741 C10.1097856,1.15138524 9.67685806,1.22887422 9.26919862,1.61547687 C8.93228999,1.93638234 8.77015272,2.24844395 8.65181356,2.47669955 C8.498099,2.77275801 8.49472991,2.77865391 8.26521091,2.79423593 C7.20689668,2.86835583 6.47917405,3.33413201 5.90642938,4.30442886 C5.76913912,4.5356324 5.40948915,4.93234231 4.99382814,5.39053804 C4.06143351,6.41895163 2.78412867,7.82765083 2.15116159,9.37406143 C1.33247362,11.376141 -0.526419731,17.3971193 0.436296673,19.744109 C0.221096287,20.4372985 -0.322168875,22.5273954 0.456932326,23.8577633 C0.41060739,24.3896578 0.374810848,25.8556315 1.15180637,27.3384506 C1.09958553,27.8164397 1.0650524,29.0550001 1.947753,29.8042006 C2.09557166,29.9292779 2.33688247,30.5049706 2.55081945,31.0120181 C3.31349635,32.8254287 4.58995892,35.8601332 8.07401526,37.3113671 C8.2567882,37.4023324 9.88658368,38.2045961 10.895625,38.2045961 C11.8932957,38.2045961 15.7871172,37.1003781 15.8473396,34.6426297 C15.8759768,33.4617649 16.078122,33.2347727 16.2739501,33.0149398 C16.4095559,32.8629098 16.5784313,32.6729776 16.6866632,32.3343844 C16.9275529,31.5729709 17.2438258,26.8027659 16.6778193,25.2883616 C16.441141,24.6579213 16.5156821,24.5189465 16.6630796,24.241418 C16.7856301,24.0114779 16.9536633,23.6968895 16.9966191,23.1767868 C17.0597895,22.4031603 16.8235323,20.2178868 15.9580983,19.3124448 C16.3181694,18.7776024 16.7519392,17.8115169 16.70772,16.2912167 Z M8.33638286,3.8247552 C8.40081663,3.8201227 8.45598542,3.80875204 8.51368102,3.79948705 C8.50567944,4.19409128 8.56969208,4.62996682 8.79205178,5.02583446 C9.127697,5.62511068 9.73834389,5.99865812 10.6054625,6.13679066 C10.6260981,6.14015974 10.6467338,6.14184428 10.6669483,6.14184428 C10.8539326,6.14184428 11.0181755,6.00623856 11.0484973,5.81588519 C11.0821882,5.60447502 10.9385809,5.40569893 10.7271707,5.37242921 C10.1068377,5.27304116 9.6831751,5.03004581 9.46839585,4.64933906 C9.23045413,4.22820328 9.26667181,3.70094128 9.34247625,3.32444588 C9.4372318,3.19978969 9.50756148,3.0692376 9.56778389,2.95216185 C9.6713833,2.75338576 9.76866566,2.5655592 9.98007583,2.3642563 C10.1274734,2.22401808 10.1940128,2.22401808 10.2378109,2.22401808 C10.3043504,2.22401808 10.3704687,2.23580988 10.439535,2.24718055 C10.852248,2.31161432 11.354663,2.28255595 11.8372846,2.00502747 C12.7477802,1.48071342 13.1343829,1.31141683 14.2259668,1.31141683 C14.6100426,1.31141683 15.1634151,2.72390626 15.3727196,4.26484209 C15.4253615,4.49436109 15.4687385,4.84348266 15.5032716,5.2793582 C15.1777337,4.91718142 14.7578613,4.61522706 14.2221766,4.50783744 C14.0128721,4.46446045 13.8082001,4.60175072 13.7665077,4.81147634 C13.723973,5.02120196 13.8604209,5.22503168 14.0701466,5.2675664 C14.9073645,5.43602071 15.3815634,6.38820872 15.5896045,6.93863319 C15.6081345,7.48526744 15.6216108,8.0744364 15.6308758,8.68508329 C14.5620332,8.30479767 13.0202551,8.19656578 12.0267957,9.53746212 C11.4953224,10.2550775 11.3260258,10.8901503 11.3108649,11.3988823 C10.8846755,11.4254138 10.0840964,11.58713 9.41070025,12.3561239 C9.10495567,11.7728509 8.48799174,11.1912623 7.36692828,11.1184059 C6.35662353,11.0522875 5.80830474,10.7440161 5.7266044,10.4854388 C5.66343403,10.2853993 5.92959185,10.0436673 6.047931,9.94891178 C6.72048485,9.40733116 6.73606688,8.86617168 6.74785868,8.47156745 C6.75501799,8.21930711 6.76133502,7.94388431 6.90957482,7.74089686 C7.48189835,8.21888597 8.26900113,8.42271569 9.26582954,8.42271569 C9.27004089,8.42271569 9.27383112,8.42271569 9.27804247,8.42271569 C9.48692582,8.42271569 9.65874922,8.34564785 9.66506626,8.13592223 C9.67180443,7.92198525 9.50377125,7.78764293 9.28983428,7.78048362 C8.27573931,7.74931957 7.54548986,7.47389677 7.11887931,6.91841867 C6.63499429,6.28882067 6.62994066,5.46044658 6.67500219,4.99467041 C6.7175369,4.93444799 6.7621773,4.8792792 6.79460475,4.82453155 C7.1929992,4.15071429 7.62508452,3.87444922 8.33638286,3.8247552 Z M3.10713982,9.76571771 C3.6706195,8.38734029 4.87759466,7.05655121 5.75903186,6.08456982 C5.81462178,6.02308399 5.8643158,5.96791521 5.91695778,5.90937733 C5.97212656,6.34019924 6.10731115,6.81187132 6.38820872,7.24269323 C5.99697357,7.68446466 5.9843395,8.10307363 5.97423224,8.44798384 C5.96412498,8.79710541 5.95738681,9.02704555 5.56320372,9.34500306 C4.86369718,9.90721934 4.90370508,10.4466943 4.98961678,10.7179057 C5.19892126,11.37951 6.04708873,11.8069629 7.3176554,11.8899266 C8.75372842,11.984261 8.8817537,13.1364885 8.89143982,13.2645138 C8.90238935,13.4384429 9.02746668,13.5837347 9.19760554,13.6195313 C9.22497936,13.6258483 9.25151092,13.6283751 9.27846361,13.6283751 C9.42038637,13.6283751 9.55430755,13.5496227 9.62168927,13.4199129 C10.2032778,12.3022185 11.0952434,12.1750355 11.4127798,12.1678762 C11.6439833,12.9385547 12.2108321,13.4717126 12.6884001,13.7176559 C12.7448323,13.7467143 12.8054758,13.7606118 12.864856,13.7606118 C13.0055153,13.7606118 13.141121,13.6839651 13.2097662,13.5500439 C13.3074697,13.3601116 13.2325075,13.1263813 13.0421541,13.0286778 C12.7048244,12.8551698 12.2613684,12.4416145 12.1228147,11.8473919 C11.9893147,11.2729627 12.1661917,10.6509451 12.6496556,9.99776353 C13.5466748,8.78699815 15.0021201,9.24140366 15.6418253,9.52440691 C15.6548805,10.7945524 15.6548805,12.0916507 15.6548805,13.1887094 C15.6548805,14.5232887 15.6553017,15.6641455 15.6742528,16.3215385 C15.7319484,18.2726606 14.8896768,19.0041734 14.8597762,19.0294416 L14.6155174,19.2265331 C14.2554463,19.3065489 13.7184982,19.300653 13.3074697,18.7510708 C13.3036794,18.7460172 13.2986258,18.7439115 13.2944145,18.739279 C13.2902031,18.7342254 13.2880974,18.7279083 13.2838861,18.7228547 C13.2704097,18.708115 13.2514586,18.6992711 13.2358766,18.686637 C13.2156621,18.6706339 13.1971321,18.6019887 13.1743908,18.5906181 C13.1706005,18.5880913 13.1680737,18.5299745 13.1630201,18.5299745 C13.162599,18.5299745 13.1621778,18.5299745 13.1613355,18.5299745 C13.1600721,18.5299745 13.159651,18.5792474 13.1583876,18.5788263 C13.1423844,18.5712458 13.125539,18.5981985 13.1095358,18.5931449 C13.0838466,18.5851433 13.0594207,18.5901969 13.032468,18.5876701 C13.0257298,18.587249 13.0194128,18.5901969 13.0126746,18.5901969 C12.9941446,18.5897758 12.9772992,18.5990408 12.9591904,18.6007253 C12.9343434,18.6032522 12.9103386,18.6070424 12.8859127,18.6142017 C12.8795957,18.6163074 12.8728575,18.6167285 12.8665405,18.6188342 C12.8480105,18.6259935 12.8324285,18.6394698 12.8147408,18.649156 C12.7987376,18.6579998 12.7810499,18.6613689 12.7663102,18.6723184 C12.7612565,18.6761086 12.7587297,18.6824257 12.7540972,18.6862159 C12.7490436,18.6904273 12.7431477,18.6925329 12.7385152,18.6963232 C12.7241966,18.7093784 12.7153527,18.7283295 12.7027187,18.7434904 C12.6867155,18.7637049 12.6694489,18.7822349 12.6580783,18.8045551 C12.6555515,18.8096087 12.6504978,18.8129778 12.6483922,18.8180314 C12.647971,18.8184525 12.6471288,18.8205582 12.6471288,18.8209794 C12.6471288,18.8214005 12.6462865,18.8218216 12.6462865,18.8222428 C8.5557946,27.8598167 3.42341279,27.2828607 2.12547231,26.9653243 C1.56746739,25.9630211 1.47060616,24.9379766 1.47186957,24.3382793 C1.84668042,24.5088393 2.3242484,24.6469718 2.89867761,24.6469718 C3.86139401,24.6469718 5.08816255,24.2595269 6.52676239,22.9935927 C8.17171877,21.5457279 8.76509909,20.491625 8.7899461,20.4474058 C8.8935455,20.2608426 8.82574264,20.0258488 8.63960062,19.9218283 C8.45261634,19.8178078 8.21762257,19.8856106 8.11275976,20.0709104 C8.10728499,20.0801754 7.54675326,21.0631063 6.01508241,22.4128465 C3.63145387,24.5096815 2.04250856,23.8674495 1.41122601,23.4324162 L1.41080488,23.4315739 C0.836375668,22.6309948 1.1509641,20.9814059 1.39438058,20.1475571 C1.54430492,19.6207162 1.80498797,19.1894732 2.10862687,18.6975866 C2.57229737,17.9471226 3.09703256,17.0964283 3.31139068,15.6944673 C3.61460844,13.7067064 4.71840533,13.2282961 4.7756798,13.2047125 C4.97319248,13.1276447 5.07258053,12.905285 4.99719722,12.7065089 C4.92097164,12.5056271 4.695664,12.4049757 4.49773018,12.4816224 C4.43329641,12.5056271 2.92226121,13.1057456 2.54576582,15.5773915 C2.35541244,16.8239535 1.89511103,17.5693638 1.44954937,18.2907694 C1.37248152,18.4158467 1.29667708,18.5392395 1.22297832,18.6634746 C0.957241639,16.4891505 2.20127675,11.9792074 3.10713982,9.76571771 Z M15.966521,23.0917173 C15.9412529,23.3991465 15.8532355,23.5646528 15.7517418,23.7562696 C15.5015871,24.2249937 15.339871,24.6625538 15.7104704,25.6501172 C16.1850905,26.921105 15.8911377,31.4247311 15.7024689,32.0210594 C15.6611976,32.1499269 15.6047654,32.2135184 15.5020082,32.3284885 C15.1465696,32.7264618 14.8492478,33.1745503 14.8138724,34.6186249 C14.7810238,35.9603635 12.5978559,36.8493812 11.4296252,37.0986935 C11.4127798,37.0919554 11.3955132,37.0898497 11.3786678,37.0826904 C10.7414893,36.8005294 10.2277037,35.8087546 9.91985341,35.0216519 C10.2736075,35.1269358 10.6635792,35.1892639 11.0969279,35.1892639 C11.2763318,35.1795778 11.4856363,35.0755572 11.4856363,34.8611991 C11.4856363,34.6472621 11.3121283,34.5331343 11.0986125,34.5331343 C11.0981913,34.5331343 11.0977702,34.5331343 11.0973491,34.5331343 C10.4496422,34.5331343 9.91816887,34.3069844 9.47934538,34.0551452 C9.47344948,34.0517761 9.46755358,34.0193487 9.46123654,34.0159796 C8.07991117,33.2111891 7.65456402,31.5270671 7.63182269,31.4344172 C7.58086526,31.2267973 7.37156078,31.0903493 7.16520424,31.1417279 C6.95716316,31.1922642 6.82913789,31.3960939 6.87883191,31.604135 C6.88514894,31.6306665 7.36987623,33.5531514 8.9453452,34.5718788 C9.07210707,35.003543 9.46249995,36.188198 10.1401074,37.0300484 C9.52272236,36.8468543 8.82490037,36.5335293 8.5039949,36.3730766 C5.37832511,35.0700825 4.24883893,32.3874475 3.50258632,30.6123602 C3.4293087,30.4384311 3.36150583,30.276715 3.29496638,30.1255272 C3.54849012,30.1769058 3.82433406,30.214808 4.1401859,30.214808 C4.44508821,30.214808 4.77947002,30.1844862 5.1429102,30.1137354 C5.3534781,30.0724641 5.48992609,29.8698978 5.44907592,29.6593299 C5.40780461,29.4491832 5.19892126,29.3102083 4.99467041,29.3535853 C3.91108803,29.5645744 3.16778337,29.3497951 2.73654033,29.1358581 C2.69779584,29.09206 2.65778794,29.0528944 2.61609549,29.017519 C2.23033512,28.6898753 2.15916317,28.1331338 2.16126885,27.7507425 C2.45185254,27.8021211 2.83213815,27.8471826 3.29243957,27.8471826 C5.11806319,27.8471826 8.10981181,27.1367266 10.9495304,23.3144982 C10.7440161,24.1003376 10.6307306,24.8255334 10.7170634,25.3233159 C10.8888869,26.3096159 11.5989218,26.8937312 12.2251507,27.4087803 C12.7166162,27.8122284 13.1402788,28.1609288 13.1693371,28.5930141 C13.1958687,28.9943565 12.8939143,29.535516 12.272739,30.2034373 C11.4671063,31.0684502 11.4224659,31.9275672 11.7509518,32.5142094 C11.7218934,32.5045233 11.6932562,32.4969428 11.6641978,32.4855722 C10.6113584,32.0648575 9.81920196,30.6300479 9.37237689,28.3348579 C9.33026331,28.1238688 9.12643359,27.9836306 8.91797138,28.0278499 C8.70824576,28.0695423 8.57095549,28.2721086 8.61180566,28.4818343 C9.11969542,31.0916127 10.0525112,32.6814003 11.3849848,33.2086623 C11.7261048,33.3425835 12.0604866,33.3952255 12.3733905,33.3952255 C12.6938748,33.3952255 12.9878276,33.337951 13.2489318,33.2621465 C13.5799445,33.2242443 13.9244336,33.0814793 14.2503927,32.7997395 C14.2537618,32.7976338 14.2630268,32.7913167 14.2642902,32.7904745 C14.2655536,32.7896322 14.2663958,32.7875265 14.2680804,32.7862631 C14.2781876,32.7774193 14.288716,32.7719445 14.2988233,32.7626795 C14.3135631,32.7492032 14.3203012,32.7315155 14.3325142,32.7167757 C14.3485173,32.6969823 14.3645205,32.6788735 14.3763123,32.6569744 C14.3885252,32.633812 14.3952634,32.6106495 14.4024227,32.5858025 C14.409582,32.56264 14.4167413,32.540741 14.4192681,32.5167362 C14.4217949,32.4910469 14.4192681,32.4670422 14.4171625,32.4413529 C14.4150568,32.4173482 14.4133722,32.3946068 14.4066341,32.3710232 C14.3990536,32.3449128 14.3864195,32.3221715 14.3737855,32.2981667 C14.3653628,32.2825847 14.3628359,32.2653181 14.3523075,32.2505784 C14.3480962,32.2442614 14.341358,32.2417345 14.3363044,32.2358386 C14.3312508,32.2295216 14.3295662,32.22152 14.3240914,32.215203 C14.3106151,32.2004632 14.2925063,32.1933039 14.2773454,32.181091 C14.2588154,32.1659301 14.2411277,32.1503481 14.2200709,32.1385563 C14.1964873,32.1263433 14.1720614,32.1187629 14.1467933,32.1116036 C14.1244731,32.1048654 14.1029952,32.0981272 14.0798327,32.0956004 C14.0541434,32.0926525 14.0292964,32.0951793 14.0036071,32.0977061 C13.9796024,32.0998118 13.956861,32.1014963 13.9332774,32.1078134 C13.9075882,32.1149727 13.8848468,32.1276067 13.8608421,32.1398197 C13.8448389,32.1486635 13.8271512,32.1507692 13.8124115,32.1617187 C13.8073578,32.1659301 13.5222489,32.3647062 13.1015343,32.4990485 C12.8736998,32.5078924 12.6740814,32.4232441 12.5397391,32.2889018 C12.266422,32.0126367 12.1809314,31.4394709 12.8400089,30.7319628 C13.6346922,29.8778994 13.9850771,29.1817619 13.9425424,28.5416355 C13.891585,27.7760107 13.2948356,27.2849664 12.7183007,26.8111886 C12.1699819,26.3601522 11.6035543,25.8939549 11.4814249,25.190237 C11.2906504,24.0935994 12.4466681,21.1726016 13.1217488,19.6493534 C13.4969808,19.9319356 13.9109572,20.0351138 14.2933485,20.0351138 C14.548978,20.0351138 14.7860774,19.9887889 14.9924339,19.9243551 L15.1065617,19.9449908 C15.4754767,20.0119514 16.0612766,21.9348573 15.966521,23.0917173 Z" fill-rule="nonzero"></path>
                                    <path d="M4.90328394,19.0100693 C4.93150004,19.0163864 4.95971614,19.0193343 4.9875111,19.0193343 C5.16480926,19.0193343 5.32484086,18.8963627 5.3652699,18.7156954 C5.74260756,17.0122012 6.8539849,16.5843272 7.31386517,16.4786221 C7.36819169,16.5468461 7.42799297,16.6159124 7.49495356,16.6853998 C7.73626437,16.9355544 7.90303414,17.1414898 8.03737645,17.3078385 C8.36502009,17.7121288 8.6016984,18.0048182 9.24477275,18.0595659 C9.27551566,18.0620927 9.30625857,18.0637772 9.33742262,18.0637772 C10.0874655,18.0637772 11.0139642,17.3200514 11.8288619,16.5843272 C11.9876301,16.441141 11.9998431,16.19604 11.8566569,16.0372718 C11.7134707,15.8785036 11.4683697,15.8675541 11.3096015,16.0094769 C10.3376201,16.8883872 9.6667508,17.3183669 9.3113122,17.2884662 C8.9958815,17.2615135 8.93481681,17.1857091 8.63960062,16.8210055 C8.49388764,16.6403383 8.31364153,16.4179786 8.0521162,16.1476094 C7.48231949,15.5567559 7.66804037,15.1356201 7.68320126,15.1044561 C7.78343157,14.9204197 7.71857666,14.6883739 7.53580373,14.5835111 C7.35050399,14.4782271 7.11382568,14.5409764 7.00685719,14.7262761 C6.99211743,14.7519654 6.75670253,15.1764703 6.93357956,15.7761676 C6.10857456,16.0334816 4.99593381,16.8016333 4.60848889,18.5485045 C4.56216396,18.7569667 4.69440059,18.9637444 4.90328394,19.0100693 Z" fill-rule="nonzero"></path>
                                </g>
                            </g>
                        </g>
                    </g>
                </g>
            </g>
        </g>
    </g>
</svg>