<?xml version="1.0" encoding="UTF-8"?>
<svg width="43px" height="40px" viewBox="0 0 43 40" version="1.1" xmlns="http://www.w3.org/2000/svg" xmlns:xlink="http://www.w3.org/1999/xlink">
    <!-- Generator: Sketch 45.2 (43514) - http://www.bohemiancoding.com/sketch -->
    <title>ProductTubs/AlgoritemIcon</title>
    <desc>Created with Sketch.</desc>
    <defs>
        <polygon id="path-1" points="1.30863202e-16 4.8947 1.30863202e-16 0.4737 4.4214 0.4737 4.4214 4.8947 0 4.8947"></polygon>
        <polygon id="path-3" points="0.8158 0.763 5.2368 0.763 5.2368 5.1838 0.8158 5.1838 0.8158 0.763"></polygon>
        <polygon id="path-5" points="4.8159 5 0.3949 5 0.3949 0.5792 4.8159 0.5792 4.8159 5"></polygon>
    </defs>
    <g id="Front-Page" stroke="none" stroke-width="1" fill="none" fill-rule="evenodd">
        <g id="Extra-large-≥1200px" transform="translate(-136.000000, -4069.000000)">
            <g id="Tab4_Lab" transform="translate(0.000000, 3562.000000)">
                <g id="TextAndIcons" transform="translate(124.000000, 163.000000)">
                    <g id="Icons" transform="translate(0.000000, 331.000000)">
                        <g id="Self-contained-consu" transform="translate(0.000000, 12.000000)">
                            <g id="AlgoritemIcon" transform="translate(12.720497, 0.000000)">
                                <g>
                                    <path d="M2.2104,15.9205 L16.0254,3.2105 L39.7894,7.6315 C39.7894,7.6315 32.6054,31.3955 32.6054,31.9465 C32.6054,32.4995 11.6054,38.0255 11.6054,38.0255 L2.2104,15.9205 Z" id="Stroke-1" stroke="#00979B" stroke-width="1.5"></path>
                                    <polygon id="Stroke-3" stroke="#00979B" stroke-width="1.5" points="14.3687 17.5787 11.6047 38.0257 30.9477 20.3427 39.7897 7.6317"></polygon>
                                    <polyline id="Stroke-5" stroke="#00979B" stroke-width="1.5" points="16.0259 3.2106 30.9479 20.3426 2.2109 15.9206"></polyline>
                                    <path d="M32.605,31.9469 L30.948,20.3429" id="Stroke-7" stroke="#00979B" stroke-width="1.5"></path>
                                    <path d="M27.0786,13.1579 C27.0786,14.3789 26.0896,15.3689 24.8686,15.3689 C23.6476,15.3689 22.6576,14.3789 22.6576,13.1579 C22.6576,11.9369 23.6476,10.9469 24.8686,10.9469 C26.0896,10.9469 27.0786,11.9369 27.0786,13.1579" id="Fill-9" fill="#00979B"></path>
                                    <path d="M33.1577,20.3424 C33.1577,21.5634 32.1687,22.5524 30.9477,22.5524 C29.7257,22.5524 28.7367,21.5634 28.7367,20.3424 C28.7367,19.1204 29.7257,18.1314 30.9477,18.1314 C32.1687,18.1314 33.1577,19.1204 33.1577,20.3424" id="Fill-11" fill="#00979B"></path>
                                    <path d="M34.8159,31.9469 C34.8159,33.1689 33.8259,34.1579 32.6049,34.1579 C31.3839,34.1579 30.3949,33.1689 30.3949,31.9469 C30.3949,30.7259 31.3839,29.7369 32.6049,29.7369 C33.8259,29.7369 34.8159,30.7259 34.8159,31.9469" id="Fill-13" fill="#00979B"></path>
                                    <path d="M41.9995,7.6315 C41.9995,8.8525 41.0105,9.8425 39.7895,9.8425 C38.5685,9.8425 37.5785,8.8525 37.5785,7.6315 C37.5785,6.4105 38.5685,5.4205 39.7895,5.4205 C41.0105,5.4205 41.9995,6.4105 41.9995,7.6315" id="Fill-15" fill="#00979B"></path>
                                    <path d="M16.5786,17.5787 C16.5786,18.7997 15.5896,19.7897 14.3686,19.7897 C13.1476,19.7897 12.1576,18.7997 12.1576,17.5787 C12.1576,16.3577 13.1476,15.3687 14.3686,15.3687 C15.5896,15.3687 16.5786,16.3577 16.5786,17.5787" id="Fill-17" fill="#00979B"></path>
                                    <g id="Group-21" transform="translate(0.000000, 13.236800)">
                                        <mask id="mask-2" fill="white">
                                            <use xlink:href="#path-1"></use>
                                        </mask>
                                        <g id="Clip-20"></g>
                                        <path d="M4.4214,2.6837 C4.4214,3.9057 3.4314,4.8947 2.2104,4.8947 C0.9894,4.8947 -0.0006,3.9057 -0.0006,2.6837 C-0.0006,1.4627 0.9894,0.4737 2.2104,0.4737 C3.4314,0.4737 4.4214,1.4627 4.4214,2.6837" id="Fill-19" fill="#00979B" mask="url(#mask-2)"></path>
                                    </g>
                                    <g id="Group-24" transform="translate(13.000000, 0.236800)">
                                        <mask id="mask-4" fill="white">
                                            <use xlink:href="#path-3"></use>
                                        </mask>
                                        <g id="Clip-23"></g>
                                        <path d="M5.2368,2.9738 C5.2368,4.1948 4.2478,5.1838 3.0258,5.1838 C1.8048,5.1838 0.8158,4.1948 0.8158,2.9738 C0.8158,1.7528 1.8048,0.7628 3.0258,0.7628 C4.2478,0.7628 5.2368,1.7528 5.2368,2.9738" id="Fill-22" fill="#00979B" mask="url(#mask-4)"></path>
                                    </g>
                                    <g id="Group-27" transform="translate(9.000000, 35.236800)">
                                        <mask id="mask-6" fill="white">
                                            <use xlink:href="#path-5"></use>
                                        </mask>
                                        <g id="Clip-26"></g>
                                        <path d="M4.8159,2.7892 C4.8159,4.0102 3.8259,5.0002 2.6049,5.0002 C1.3839,5.0002 0.3949,4.0102 0.3949,2.7892 C0.3949,1.5682 1.3839,0.5792 2.6049,0.5792 C3.8259,0.5792 4.8159,1.5682 4.8159,2.7892" id="Fill-25" fill="#00979B" mask="url(#mask-6)"></path>
                                    </g>
                                </g>
                            </g>
                        </g>
                    </g>
                </g>
            </g>
        </g>
    </g>
</svg>