<?xml version="1.0" encoding="UTF-8"?>
<svg width="34px" height="55px" viewBox="0 0 34 55" version="1.1" xmlns="http://www.w3.org/2000/svg" xmlns:xlink="http://www.w3.org/1999/xlink">
    <!-- Generator: Sketch 45.1 (43504) - http://www.bohemiancoding.com/sketch -->
    <title>SimpleToOperateIcon</title>
    <desc>Created with Sketch.</desc>
    <defs></defs>
    <g id="Front-Page" stroke="none" stroke-width="1" fill="none" fill-rule="evenodd" stroke-linecap="round" stroke-linejoin="round">
        <g id="Extra-large-≥1200px" transform="translate(-256.000000, -2052.000000)" stroke="#FFFFFF">
            <g id="BloodDiagnosticsMeet..." transform="translate(-112.000000, 1490.000000)">
                <g id="icons" transform="translate(239.000000, 562.000000)">
                    <g id="SIMPLETO" transform="translate(106.000000, 0.000000)">
                        <g id="SimpleToOperateIcon" transform="translate(23.000000, 0.000000)">
                            <g transform="translate(0.876557, 0.000000)">
                                <path d="M8.9478,31.6496 L9.3218,14.4446 C9.3218,14.4446 9.3218,10.3306 11.9398,10.3306 C14.5578,10.3306 15.3058,11.4316 15.3058,14.8186 C15.3058,17.6536 15.5718,26.0626 15.6558,28.6436 C15.6638,28.8896 15.9398,29.0246 16.1408,28.8806 C16.5518,28.5886 17.3058,28.2836 18.6728,28.2836 C20.2258,28.2836 20.9898,28.9416 21.3538,29.4776 C21.6098,29.8546 22.0718,30.0296 22.5198,29.9456 C22.9778,29.8596 23.5908,29.7796 24.2828,29.7796 C25.2028,29.7796 26.1218,30.4856 26.6938,31.0306 C27.0518,31.3716 27.5498,31.5176 28.0358,31.4226 C29.2608,31.1856 31.5928,31.3036 32.1368,35.3896 C32.8848,41.0006 31.0148,49.6026 29.5188,51.4726 C28.0228,53.3426 23.9088,53.7166 21.2908,53.7166 C18.6728,53.7166 14.5578,54.0906 11.1918,50.7246 C7.8258,47.3586 6.3298,46.6106 5.9558,43.9926 C5.5818,41.3746 -0.7772,32.7716 1.0938,29.7796 C2.9638,26.7876 5.2078,27.5356 6.7038,28.6576 C8.1998,29.7796 8.9478,31.6496 8.9478,31.6496 Z" id="Stroke-1" stroke-width="1.5"></path>
                                <path d="M3.0845,18.1354 C1.5245,16.0724 0.6925,13.4484 0.9315,10.6694 C1.4435,4.7014 6.6965,0.2784 12.6655,0.7904 C18.6335,1.3024 23.0565,6.5554 22.5445,12.5244 C22.3255,15.0684 21.2455,17.3324 19.6155,19.0524" id="Stroke-3" stroke-width="1.5" stroke-dasharray="2,6"></path>
                                <path d="M9.2603,31.7292 L9.2603,36.7292" id="Stroke-5" stroke-width="1.5"></path>
                            </g>
                        </g>
                    </g>
                </g>
            </g>
        </g>
    </g>
</svg>